<?xml version="1.0" encoding="utf-8"?>
<!-- Generator: Adobe Illustrator 24.3.0, SVG Export Plug-In . SVG Version: 6.00 Build 0)  -->
<svg version="1.1" id="_x31_px" xmlns="http://www.w3.org/2000/svg" xmlns:xlink="http://www.w3.org/1999/xlink" x="0px" y="0px"
	 viewBox="0 0 512 512" style="enable-background:new 0 0 512 512;" xml:space="preserve">
<style type="text/css">
	.st0{fill:#FFFFFF;}
</style>
<path class="st0" d="M245.3,256c-5.9,0-10.7-4.8-10.7-10.7V138.7c0-5.9,4.8-10.7,10.7-10.7h32c23.5,0,42.7,19.1,42.7,42.7
	s-19.1,42.7-42.7,42.7H256v32C256,251.2,251.2,256,245.3,256z M256,192h21.3c11.8,0,21.3-9.6,21.3-21.3s-9.6-21.3-21.3-21.3H256V192
	z"/>
<path class="st0" d="M309.3,256c-2.7,0-5.5-1-7.6-3.1L259,210.2c-4.2-4.2-4.2-10.9,0-15.1c4.2-4.2,10.9-4.2,15.1,0l42.7,42.7
	c4.2,4.2,4.2,10.9,0,15.1C314.8,255,312.1,256,309.3,256z"/>
<path class="st0" d="M149.3,256c-4.7,0-8.9-3.1-10.2-7.6l-32-106.7c-1.7-5.6,1.5-11.6,7.1-13.3s11.6,1.5,13.3,7.1l21.8,72.6
	l21.8-72.6c1.7-5.7,7.7-8.8,13.3-7.1c5.7,1.7,8.9,7.6,7.1,13.3l-32,106.7C158.2,252.9,154,256,149.3,256L149.3,256z"/>
<path class="st0" d="M394.7,192c-17.6,0-32-14.4-32-32s14.4-32,32-32s32,14.4,32,32S412.3,192,394.7,192z M394.7,149.3
	c-5.9,0-10.7,4.8-10.7,10.7s4.8,10.7,10.7,10.7c5.9,0,10.7-4.8,10.7-10.7S400.5,149.3,394.7,149.3z"/>
<path class="st0" d="M458.7,362.7h-135c-4.6,0-8.7-2.9-10.1-7.3l-9.4-28.2c-1.5-4.2-5.6-7.2-10.2-7.2h-76c-4.6,0-8.7,3-10.2,7.4
	l-9.3,28c-1.5,4.3-5.5,7.3-10.1,7.3h-135c-29.5,0-53.4-24-53.4-53.4v-192C0,87.9,23.9,64,53.3,64h405.3c29.4,0,53.3,23.9,53.3,53.3
	v192C512,338.7,488.1,362.7,458.7,362.7z M331.3,341.3h127.4c17.6,0,32-14.4,32-32v-192c0-17.6-14.4-32-32-32H53.3
	c-17.6,0-32,14.4-32,32v192c0,17.6,14.4,32,32,32h127.4l6.9-20.9c4.6-13.1,16.8-21.8,30.4-21.8h76c13.6,0,25.8,8.7,30.3,21.7
	L331.3,341.3z"/>
<path class="st0" d="M437.3,85.3c-5.9,0-10.7-4.8-10.7-10.7V53.3c0-17.6-14.4-32-32-32H117.3c-17.6,0-32,14.4-32,32v21.3
	c0,5.9-4.8,10.7-10.7,10.7S64,80.6,64,74.7V53.3C64,23.9,87.9,0,117.3,0h277.3C424.1,0,448,23.9,448,53.3v21.3
	C448,80.6,443.2,85.3,437.3,85.3z"/>
<path class="st0" d="M234.7,512c-3.2,0-6.4-1.5-8.5-4.3c-3.5-4.7-2.6-11.4,2.2-14.9l31.3-23.5l-31.3-23.5
	c-4.7-3.5-5.7-10.2-2.2-14.9c3.6-4.7,10.2-5.6,14.9-2.1l42.7,32c2.7,2,4.3,5.2,4.3,8.5s-1.6,6.5-4.3,8.5l-42.7,32
	C239.1,511.3,236.9,512,234.7,512L234.7,512z"/>
<path class="st0" d="M256,480c-21.9,0-44.2-0.8-66.2-2.4C98,471,0,448.6,0,405.3c0-4.5,1.2-9.1,3.5-13.7c2.6-5.3,9.1-7.4,14.3-4.8
	s7.4,9,4.8,14.3c-0.8,1.6-1.2,3-1.2,4.2c0,15.6,54,42.7,169.9,51c21.7,1.5,43.3,3.1,65.2,2.3c5,0,9.9,0,14.7-0.2
	c6.2-0.3,10.9,4.3,11.1,10.2c0.2,5.9-4.4,10.9-10.2,11.1C266.8,480,261.5,480,256,480z"/>
<path class="st0" d="M330.4,476.8c-5.5,0-10.2-4.2-10.6-9.8c-0.5-5.9,3.9-11,9.7-11.5c109.9-9,161.1-35.2,161.1-50.2
	c0-1.2-0.4-2.6-1.2-4.2c-2.6-5.3-0.5-11.7,4.8-14.3c5.2-2.7,11.7-0.5,14.3,4.8c2.3,4.6,3.5,9.2,3.5,13.7c0,52.5-138.3,68-180.7,71.4
	C331.1,476.8,330.7,476.8,330.4,476.8L330.4,476.8z"/>
</svg>
